# xmcd
#
# Track frame offsets:
#	150
#	19383
#	39944
#	59464
#	79607
#	92420
#	113227
#
# Disc length: 1753 seconds
#
# Revision: 0
# Processed by: cddbd v1.5.2PL0 Copyright (c) Steve Scherf et al.
# Submitted via: dBpowerAMP V4.0
#
DISCID=4c06d707
DTITLE=Julia Haltigan - My Green Heart
DYEAR=1900
DGENRE=
TTITLE0=My Green Heart
TTITLE1=That Flame
TTITLE2=Gunfighter
TTITLE3=Goodbye Cowboys and Rocketmen
TTITLE4=Hand Me the Crown
TTITLE5=Homesick for the Moon
TTITLE6=When I Shake My Chain
EXTD=My Green Heart- Julia Haltigan
EXTT0=
EXTT1=
EXTT2=
EXTT3=
EXTT4=
EXTT5=
EXTT6=
PLAYORDER=
